<svg xmlns="http://www.w3.org/2000/svg" width="122" height="117" viewBox="0 0 122 117" version="1.1"><path d="M 112.280 21.613 C 112.617 21.950, 104.815 38.375, 94.944 58.113 C 85.072 77.851, 77.220 94, 77.495 94 C 77.988 94, 114 22.485, 114 21.505 C 114 21.227, 113.475 21, 112.833 21 C 112.192 21, 111.942 21.276, 112.280 21.613 M 35.946 67.109 C 28.762 81.468, 23.038 93.371, 23.226 93.559 C 23.413 93.747, 29.513 81.998, 36.781 67.450 C 44.049 52.903, 49.773 41, 49.501 41 C 49.230 41, 43.130 52.749, 35.946 67.109" stroke="none" fill="#d35d68" fill-rule="evenodd"/><path d="M 42.003 56.995 C 32.101 76.792, 24 93.217, 24 93.495 C 24 93.773, 35.924 94, 50.497 94 L 76.995 94 94.944 58.113 C 104.815 38.375, 112.617 21.950, 112.280 21.613 C 111.942 21.276, 100.043 21, 85.836 21 L 60.005 21 42.003 56.995" stroke="none" fill="#d80c15" fill-rule="evenodd"/></svg>